<svg width="49" height="64" viewBox="0 0 49 64" fill="none" xmlns="http://www.w3.org/2000/svg">
<circle cx="14.5015" cy="23.9785" r="4.9099" fill="#001C43"/>
<path d="M0.00599482 0C0.46273 1.80791 3.14605 5.91658 11.3673 7.65031C18.0813 9.06619 19.9881 10.1053 20.9016 10.6762C20.6162 9.47725 18.3896 7.99286 15.8204 7.99286C16.3723 7.34582 19.3014 5.82337 24.3804 5.82337C29.4594 5.82337 32.5043 7.34582 33.0562 7.99286C30.4871 7.99286 28.2605 9.47725 27.975 10.6762C28.8885 10.1053 30.7954 9.06619 37.5094 7.65031C45.7306 5.91658 48.4139 1.80791 48.8706 0C48.8588 0.433132 48.8641 0.923765 48.8697 1.45138C48.8912 3.47376 48.9186 6.03952 48.0143 7.99286C46.6284 10.9862 42.4439 12.2752 40.7387 12.8005C40.6876 12.8162 40.6388 12.8313 40.5923 12.8457C40.1872 12.9555 39.7719 13.0614 39.3365 13.1724C37.5831 13.6195 35.5014 14.1504 32.4282 15.3577C28.5916 16.8649 25.8055 21.2953 25.8055 23.7502C25.1585 23.3458 24.583 22.4789 24.3804 21.9817C24.1994 22.4789 23.7182 23.3458 23.0711 23.7502C23.0711 21.2953 20.285 16.8649 16.4485 15.3577C13.3752 14.1504 11.2935 13.6195 9.54018 13.1724L9.54007 13.1724L9.53975 13.1723C9.10442 13.0613 8.68932 12.9554 8.28432 12.8457C8.23785 12.8313 8.18903 12.8162 8.13798 12.8005C6.43271 12.2752 2.24819 10.9862 0.862373 7.99286C-0.0419505 6.03952 -0.0146028 3.47384 0.00695393 1.45146C0.0125781 0.923816 0.0178081 0.433155 0.00599482 0Z" fill="#001C43"/>
<path d="M8.96942 16.0428C7.63727 16.0999 4.82455 15.8144 4.23079 14.6726C2.51804 16.2712 0.46273 18.9545 0.46273 24.0928C0.46273 29.231 2.0613 31.6422 4.80171 34.2551C7.54212 36.8681 11.7098 38.0367 15.3637 37.5664C18.7892 37.1255 21.13 34.7689 21.13 34.7689L20.5591 33.1133H20.1023C20.1023 33.1133 14.6215 35.8713 9.71161 33.2275C5.25845 30.8296 4.1737 25.6913 4.51625 22.9509C4.90573 19.8351 6.85702 17.2988 8.96942 16.0428Z" fill="#001C43"/>
<path d="M39.9072 16.0428C41.2394 16.0999 44.0521 15.8144 44.6458 14.6726C46.3586 16.2712 48.4139 18.9545 48.4139 24.0928C48.4139 29.231 46.8153 31.6422 44.0749 34.2551C41.3345 36.8681 37.1668 38.0367 33.5129 37.5664C30.0874 37.1255 27.7467 34.7689 27.7467 34.7689L28.3176 33.1133H28.7743C28.7743 33.1133 34.2551 35.8713 39.165 33.2275C43.6182 30.8296 44.5888 25.6913 44.2462 22.9509C43.8567 19.8351 42.0196 17.2988 39.9072 16.0428Z" fill="#001C43"/>
<path fill-rule="evenodd" clip-rule="evenodd" d="M34.141 28.8884C36.8526 28.8884 39.0509 26.6902 39.0509 23.9785C39.0509 21.2668 36.8526 19.0686 34.141 19.0686C31.4293 19.0686 29.2311 21.2668 29.2311 23.9785C29.2311 26.6902 31.4293 28.8884 34.141 28.8884ZM35.397 23.636C36.406 23.636 37.2239 22.8181 37.2239 21.8091C37.2239 20.8001 36.406 19.9822 35.397 19.9822C34.388 19.9822 33.57 20.8001 33.57 21.8091C33.57 22.8181 34.388 23.636 35.397 23.636Z" fill="#001C43"/>
<path fill-rule="evenodd" clip-rule="evenodd" d="M24.3292 35.6088L24.3365 35.6253V35.5924L26.2276 31.3351C26.6925 30.3299 27.2585 26.9537 24.3365 25.584V25.5771C24.334 25.5783 24.3316 25.5794 24.3292 25.5806C24.3267 25.5794 24.3243 25.5783 24.3218 25.5772V25.584C21.3999 26.9537 21.9658 30.3299 22.4308 31.3351L24.3218 35.5924V35.6253L24.3292 35.6088Z" fill="#001C43"/>
<path d="M39.5076 56.8635C50.2979 50.0125 48.6994 38.9938 46.8724 34.4835C46.1112 35.3589 44.132 37.7948 40.4781 38.9938C36.9705 40.1447 35.1686 39.2792 30.43 42.4193C26.1724 45.2406 24.8159 50.6976 24.264 53.8948L24.3211 64C32.5622 58.5763 34.2171 50.6025 34.3693 47.3292C37.5664 49.4987 35.1115 57.2632 30.1445 61.2596C41.5629 56.0642 41.9625 46.3015 41.4487 41.3916C45.3766 44.1777 42.9902 52.5816 39.5076 56.8635Z" fill="#001C43"/>
<path d="M9.13977 56.8635C-1.65059 50.0125 -0.0520172 38.9938 1.77492 34.4835C2.53615 35.3589 4.51533 37.7948 8.16921 38.9938C11.6768 40.1447 13.4788 39.2792 18.2174 42.4193C22.4749 45.2406 23.8314 50.6976 24.3833 53.8948L24.3262 64C16.0851 58.5763 14.4303 50.6025 14.278 47.3292C11.0809 49.4987 13.5358 57.2632 18.5028 61.2596C7.08447 56.0642 6.68482 46.3015 7.19865 41.3916C3.27073 44.1777 5.65717 52.5816 9.13977 56.8635Z" fill="#001C43"/>
</svg>
